<?xml version="1.0" encoding="UTF-8" standalone="no"?>
<!-- Created with Inkscape (http://www.inkscape.org/) -->

<svg
   xmlns:dc="http://purl.org/dc/elements/1.1/"
   xmlns:cc="http://creativecommons.org/ns#"
   xmlns:rdf="http://www.w3.org/1999/02/22-rdf-syntax-ns#"
   xmlns:svg="http://www.w3.org/2000/svg"
   xmlns="http://www.w3.org/2000/svg"
   xmlns:sodipodi="http://sodipodi.sourceforge.net/DTD/sodipodi-0.dtd"
   xmlns:inkscape="http://www.inkscape.org/namespaces/inkscape"
   width="256.40536mm"
   height="334.11505mm"
   viewBox="0 0 256.40537 334.11505"
   version="1.1"
   id="svg5043"
   inkscape:version="0.92.4 (5da689c313, 2019-01-14)"
   sodipodi:docname="teach person.svg">
  <defs
     id="defs5037" />
  <sodipodi:namedview
     id="base"
     pagecolor="#ffffff"
     bordercolor="#666666"
     borderopacity="1.0"
     inkscape:pageopacity="0.0"
     inkscape:pageshadow="2"
     inkscape:zoom="0.49497475"
     inkscape:cx="317.41039"
     inkscape:cy="724.36328"
     inkscape:document-units="mm"
     inkscape:current-layer="layer6"
     showgrid="false"
     inkscape:window-width="1920"
     inkscape:window-height="1017"
     inkscape:window-x="-8"
     inkscape:window-y="760"
     inkscape:window-maximized="1"
     fit-margin-bottom="-15"
     fit-margin-top="-10"
     fit-margin-left="-10"
     fit-margin-right="-10"
     showguides="false" />
  <metadata
     id="metadata5040">
    <rdf:RDF>
      <cc:Work
         rdf:about="">
        <dc:format>image/svg+xml</dc:format>
        <dc:type
           rdf:resource="http://purl.org/dc/dcmitype/StillImage" />
        <dc:title></dc:title>
      </cc:Work>
    </rdf:RDF>
  </metadata>
  <g
     inkscape:label="Layer 1"
     inkscape:groupmode="layer"
     id="layer1"
     transform="translate(-13.929504,-27.165279)"
     style="display:inline"
     sodipodi:insensitive="true">
    <path
       style="fill:#292e3f;fill-opacity:1;stroke:#000000;stroke-width:0.26458332px;stroke-linecap:butt;stroke-linejoin:miter;stroke-opacity:1"
       d="m 41.495165,211.7703 c -6.943252,25.67925 -6.344163,44.49148 -7.739823,66.89521 -1.943651,31.20031 -4.768604,93.23917 -0.866764,93.77836 2.792494,0.38588 22.305576,10.39202 26.786376,-8.20423 5.444422,-22.5955 4.821871,-88.63527 7.917076,-88.83744 4.020872,-0.26264 5.091474,96.03177 7.202672,95.9516 10.873444,-0.41294 25.577718,14.53123 28.943318,-6.35217 0.59776,-3.70904 -1.86828,-57.99339 -5.110257,-86.79238 -2.568234,-22.81401 -7.410857,-64.33002 -11.339281,-67.9345 -8.526694,-7.82355 -13.801223,-10.63139 -45.793317,1.49555 z"
       id="path2583"
       inkscape:connector-curvature="0"
       sodipodi:nodetypes="casssssasc" />
    <path
       style="fill:#392916;fill-opacity:1;stroke:#000000;stroke-width:0.26458332px;stroke-linecap:butt;stroke-linejoin:miter;stroke-opacity:1"
       d="m 104.6994,21.833333 -0.0917,127.680347 181.46618,0.11071 0.11071,-127.737333 z"
       id="path5622"
       inkscape:connector-curvature="0"
       sodipodi:nodetypes="ccccc" />
    <path
       style="fill:#eeeeee;fill-opacity:1;stroke:#000000;stroke-width:0.26458332px;stroke-linecap:butt;stroke-linejoin:miter;stroke-opacity:1"
       d="m 109.99107,17.297619 -0.092,126.622021 171.41203,0.11071 0.1107,-126.679007 z"
       id="path5622-2"
       inkscape:connector-curvature="0"
       sodipodi:nodetypes="ccccc" />
    <path
       style="fill:#ffc8a4;fill-opacity:1;stroke:#000000;stroke-width:0.26458332px;stroke-linecap:butt;stroke-linejoin:miter;stroke-opacity:1"
       d="m 40.624969,98.418739 c -7.935072,-1.441884 -2.097879,5.697651 3.741771,6.949011"
       id="path5592"
       inkscape:connector-curvature="0" />
    <path
       style="fill:#ffc8a4;fill-opacity:1;stroke:#000000;stroke-width:0.26458332px;stroke-linecap:butt;stroke-linejoin:miter;stroke-opacity:1"
       d="m 69.490076,97.082392 c 9.297111,-2.93456 4.169367,5.799768 -1.870887,8.819898"
       id="path5594"
       inkscape:connector-curvature="0" />
    <path
       style="fill:#ffc8a4;fill-opacity:1;stroke:#000000;stroke-width:0.26458332px;stroke-linecap:butt;stroke-linejoin:miter;stroke-opacity:1"
       d="m 49.712131,116.86034 c 2.942701,9.16717 0.503984,11.25587 -2.939963,14.69982 -1.154091,1.15409 3.054677,7.07135 8.621988,7.82481 7.422617,1.00455 16.636668,-3.63695 12.748154,-6.82762 -3.810307,-3.12649 -5.840774,-8.27723 -5.200338,-13.69249 0.754089,-6.37627 -5.532827,-2.00452 -13.229841,-2.00452 z"
       id="path5596"
       inkscape:connector-curvature="0"
       sodipodi:nodetypes="cssssc" />
    <path
       style="fill:#ffe2bf;fill-opacity:1;stroke:#000000;stroke-width:0.26458332px;stroke-linecap:butt;stroke-linejoin:miter;stroke-opacity:1"
       d="m 105.36086,119.72916 c -0.39296,-7.51026 9.76177,-20.75803 14.08279,-22.677147 0.2076,-0.0922 4.85696,-2.577645 4.66587,-1.628592 -0.35988,1.787346 -2.48732,2.125346 -3.58537,2.965506 -1.09029,0.834215 -1.87435,1.427939 -2.51685,2.307293 -0.83798,1.14689 -1.20786,2.65324 -1.07927,2.72337 0,0 1.15977,0.17789 1.76476,1.14674 0.26567,0.42545 -0.25197,0.85116 1.06485,1.56495 0.49508,0.26836 0.66681,0.73342 0.86363,1.36403 0.8903,2.8525 -0.0691,7.13915 -8.45684,12.61183"
       id="path5612"
       inkscape:connector-curvature="0"
       sodipodi:nodetypes="cssssssssc" />
    <path
       style="fill:#ffe2bf;fill-opacity:1;stroke:#000000;stroke-width:0.26458332px;stroke-linecap:butt;stroke-linejoin:miter;stroke-opacity:1"
       d="m 38.486812,88.262499 c 1.565299,12.225471 2.583557,16.706731 5.538597,21.752831 3.147661,5.37503 8.053882,11.47517 12.504661,11.29971 3.394717,-0.13384 9.070242,-4.95892 11.575414,-9.54686 8.666783,-15.872234 7.238868,-47.961257 -14.651579,-39.541855"
       id="path5588"
       inkscape:connector-curvature="0"
       sodipodi:nodetypes="csssc" />
    <path
       style="fill:#1e222e;fill-opacity:1;stroke:none;stroke-width:0.26458332px;stroke-linecap:butt;stroke-linejoin:miter;stroke-opacity:1"
       d="m 38.16338,240.25996 c 6.714311,1.78564 8.779652,-14.16528 10.557146,-14.16528 3.27453,0 -3.768179,37.92667 -10.557146,14.16528 z"
       id="path5962"
       inkscape:connector-curvature="0" />
    <path
       style="fill:#ffe2bf;fill-opacity:1;stroke:#000000;stroke-width:0.26458332px;stroke-linecap:butt;stroke-linejoin:miter;stroke-opacity:1"
       d="m 28.675312,234.11277 c 0.665361,18.30961 11.262076,20.52618 9.519565,16.17703 -1.839544,-4.59134 -3.30598,-11.10584 -0.451338,-9.03537 3.427854,2.48622 -0.204388,-3.94442 -2.252854,-7.40894 -0.166329,-0.16632 -6.447915,0.40861 -6.815373,0.26728 z"
       id="path6008"
       inkscape:connector-curvature="0"
       sodipodi:nodetypes="csscc" />
    <path
       style="fill:#ebeefa;fill-opacity:1;stroke:#000000;stroke-width:0.26458332px;stroke-linecap:butt;stroke-linejoin:miter;stroke-opacity:1"
       d="m 70.196799,129.69608 c 5.025527,1.19371 9.136017,-0.0405 12.910591,1.57709 6.163798,7.34833 9.196645,14.51516 10.653632,17.33448 0.22825,-1.44536 8.680508,-26.06905 10.682258,-33.33213 0,0 5.53457,4.06245 10.46148,4.07567 -0.007,5.30067 -11.37752,67.98496 -17.575891,68.41368 -4.395739,0.30404 -9.156088,-1.68183 -9.921877,-6.70907 -0.652675,13.17386 0.601397,19.46452 0.085,30.8845 -0.185719,3.41869 -46.510111,5.46391 -45.996827,-0.17 -0.262821,-2.38494 -1.272954,-6.08242 -2.530038,-16.75163 -0.0687,5.14378 -0.07445,8.85577 -0.222564,13.91287 -0.23193,7.91852 -0.09943,19.55533 -0.566967,26.08036 -0.318685,2.13177 -14.174137,3.8289 -15.902126,-1.20788 -1.786336,-17.97137 -0.260077,-46.50265 1.676291,-66.52839 1.049251,-10.22254 3.234591,-24.42898 5.269047,-30.37513 1.62409,-3.90156 9.773005,-3.71226 15.575947,-6.6745 0.262784,-0.13414 11.908258,5.65054 12.162621,5.49399"
       id="path5610"
       inkscape:connector-curvature="0"
       sodipodi:nodetypes="cccscsccccsccccsc" />
    <path
       style="display:inline;fill:#dfe4f8;fill-opacity:1;stroke:none;stroke-width:0.26458332px;stroke-linecap:butt;stroke-linejoin:miter;stroke-opacity:1"
       d="m 50.269899,128.7333 c 1.62455,2.91262 5.186857,4.85755 7.413379,6.62281 1.587999,-1.77217 5.443101,-4.11598 6.543924,-6.60242 1.431552,1.00984 1.940755,1.59313 3.120641,1.88209 0.954842,0.23385 1.42251,-0.19441 2.94345,-0.18375 -0.60195,3.8413 -5.557415,10.2824 -8.743741,13.3725 -1.768916,-2.91027 -2.666565,-3.93429 -3.588907,-4.89052 -0.928955,1.17318 -1.485569,3.29515 -2.556424,5.24811 -6.728022,-3.44791 -11.41098,-8.95421 -10.436344,-12.47069 0,0 2.242116,-0.38454 3.203994,-0.94557 0.841509,-0.49083 2.100028,-2.03256 2.100028,-2.03256"
       id="path5600-9"
       inkscape:connector-curvature="0"
       sodipodi:nodetypes="cccacccccac" />
    <path
       style="fill:#ebedfa;fill-opacity:1;stroke:#000000;stroke-width:0.26458332px;stroke-linecap:butt;stroke-linejoin:miter;stroke-opacity:1"
       d="m 50.138747,126.93969 c 1.62455,2.91262 5.186857,4.85755 7.413378,6.62281 1.588,-1.77217 5.443101,-4.11598 6.543924,-6.60242 1.431552,1.00984 1.984331,1.45264 3.120641,1.88209 1.079519,0.40798 1.885264,0.60908 3.406204,0.61974 -0.60195,3.8413 -6.020169,9.47891 -9.206495,12.56901 -1.768916,-2.91027 -2.666565,-3.93429 -3.588907,-4.89052 -0.928955,1.17318 -1.485569,3.29515 -2.556424,5.24811 -6.728021,-3.44791 -11.410979,-8.95421 -10.436343,-12.47069 0,0 2.242117,-0.38454 3.203994,-0.94557 0.84151,-0.49082 2.100028,-2.03256 2.100028,-2.03256"
       id="path5600"
       inkscape:connector-curvature="0"
       sodipodi:nodetypes="cccacccccac" />
    <path
       style="fill:#dfe4f8;fill-opacity:1;stroke:none;stroke-width:0.26458332px;stroke-linecap:butt;stroke-linejoin:miter;stroke-opacity:1"
       d="m 93.761022,148.60765 c -2.160749,10.22774 -7.583378,16.1016 -7.204475,23.09323 0.13624,2.51394 -9.932005,-24.08585 -1.700892,-32.31696 1.840444,-1.84045 8.509889,8.64883 8.905367,9.22373 z"
       id="path5628"
       inkscape:connector-curvature="0"
       sodipodi:nodetypes="cscc" />
    <path
       style="fill:#966020;fill-opacity:1;stroke:#000000;stroke-width:0.26458332px;stroke-linecap:butt;stroke-linejoin:miter;stroke-opacity:1"
       d="m 110.54146,115.21036 c 0,0 0.50091,0.74014 0.88403,0.9306 0.40999,0.20381 1.36503,0.15301 1.36503,0.15301 l 17.48733,-64.202706 -1.02152,-0.566966 -18.71487,63.686062"
       id="path5624"
       inkscape:connector-curvature="0"
       sodipodi:nodetypes="cacccc" />
    <path
       style="fill:#ffe2bf;fill-opacity:1;stroke:#000000;stroke-width:0.26458332px;stroke-linecap:butt;stroke-linejoin:miter;stroke-opacity:1"
       d="m 108.66815,111.79166 c 2.78873,-1.30058 5.33505,-2.05564 6.34949,-1.76509 0.7809,0.22366 1.3106,0.99567 0.53361,1.56894 -0.90749,0.66957 -1.59631,0.77907 -3.97582,1.94834 -0.56587,0.27807 -1.83538,2.45701 -2.48206,2.64178"
       id="path5630"
       inkscape:connector-curvature="0"
       sodipodi:nodetypes="csssc" />
    <path
       style="fill:#742e00;fill-opacity:1;stroke:#000000;stroke-width:0.26458332px;stroke-linecap:butt;stroke-linejoin:miter;stroke-opacity:1"
       d="m 39.963511,98.513233 c 0.65078,-0.503412 -0.574369,-3.569543 -0.32272,-5.017249 2.61805,-0.869566 2.075451,-6.331585 3.025056,-7.574062 9.759293,-12.769195 18.389452,-0.497925 19.323992,0.210287 2.413588,1.829064 6.964696,13.820453 12.199489,9.985292 2.68924,-1.970215 1.778041,-14.512092 -1.535092,-20.516728 C 69.897557,70.604641 63.774258,67.636281 58.893789,65.41767 54.171727,63.271069 48.754241,64.145444 45.509123,67.268812 33.14401,69.191756 30.003142,92.987159 39.963511,98.513233"
       id="path5590"
       inkscape:connector-curvature="0"
       sodipodi:nodetypes="ccsssascc" />
    <path
       style="fill:#dfe4f8;fill-opacity:1;stroke:none;stroke-width:0.26458332px;stroke-linecap:butt;stroke-linejoin:miter;stroke-opacity:1"
       d="m 45.847379,130.39157 c 0.846419,0.82459 4.313316,-2.2646 4.376538,-2.13815 0.255527,0.51105 2.916136,3.09743 2.372017,3.64155 -1.103513,1.10351 -6.262958,-0.45127 -6.748555,-1.5034 z"
       id="path5678"
       inkscape:connector-curvature="0" />
    <path
       style="fill:#dfe4f8;fill-opacity:1;stroke:none;stroke-width:0.26458332px;stroke-linecap:butt;stroke-linejoin:miter;stroke-opacity:1"
       d="m 62.852402,130.29135 c 0.702786,-0.69823 1.176755,-1.7447 1.703842,-2.27179 0.05763,-0.0576 2.23564,1.17952 2.505652,1.26953 0.728432,0.24281 2.514952,0.0816 2.171565,0.7684 -0.825135,1.65027 -6.2269,2.3921 -6.381059,0.23386 z"
       id="path5680"
       inkscape:connector-curvature="0" />
    <path
       style="fill:#dfe4f8;fill-opacity:1;stroke:none;stroke-width:0.26458332px;stroke-linecap:butt;stroke-linejoin:miter;stroke-opacity:1"
       d="m 39.499727,187.05272 c -0.778969,-6.94814 0.668174,-16.18256 0.668174,-23.11882 0,-10.80358 7.853664,19.14895 9.354434,22.45064 9.656407,21.24409 10.319783,34.17126 -5.211756,8.28535 -1.971195,-3.28532 -3.562797,-4.91305 -4.810852,-7.61717 z"
       id="path5690"
       inkscape:connector-curvature="0"
       sodipodi:nodetypes="csssc" />
    <path
       style="fill:#dfe4f8;fill-opacity:1;stroke:none;stroke-width:0.26458332px;stroke-linecap:butt;stroke-linejoin:miter;stroke-opacity:1"
       d="m 58.609499,146.16048 c 0.972936,7.27711 0.150645,14.91851 1.603615,22.18337 0.997345,4.98671 1.410558,10.30434 1.870888,15.368 0.250369,2.75405 0.45952,5.54703 0.801809,8.28535 5.738246,45.90597 3.397662,-29.95424 2.939965,-30.86963 -2.546744,-5.09349 -4.594389,-12.08301 -7.216277,-14.96709 z"
       id="path5694"
       inkscape:connector-curvature="0" />
    <path
       style="fill:#dfe4f8;fill-opacity:1;stroke:none;stroke-width:0.26458332px;stroke-linecap:butt;stroke-linejoin:miter;stroke-opacity:1"
       d="m 35.624319,171.55108 c -1.970526,-2.46643 -4.302274,-4.99641 -5.746294,-7.88445 -0.855667,-1.71133 -2.44326,-5.36724 -4.020134,-8.47344 l -1.059699,8.21826 c 1.547022,6.33716 3.865247,10.81689 10.826127,8.13963 z"
       id="path5700"
       inkscape:connector-curvature="0"
       sodipodi:nodetypes="csccc" />
    <path
       style="fill:#dfe4f8;fill-opacity:1;stroke:none;stroke-width:0.26458332px;stroke-linecap:butt;stroke-linejoin:miter;stroke-opacity:1"
       d="m 33.887067,165.13661 c -3.335491,-4.61771 -5.908245,-8.4421 -7.84561,-11.54473 l 0.757644,-4.69325 c 2.452751,3.93799 5.178441,9.55464 7.087966,16.23798 z"
       id="path5704"
       inkscape:connector-curvature="0"
       sodipodi:nodetypes="cccc" />
    <path
       style="fill:none;stroke:none;stroke-width:0.26458332px;stroke-linecap:butt;stroke-linejoin:miter;stroke-opacity:1"
       d="m 101.37262,156.85126 c -8.9428,-36.64754 7.71253,-26.99385 0,0 z"
       id="path5708"
       inkscape:connector-curvature="0" />
    <path
       style="fill:#1e222e;fill-opacity:1;stroke:none;stroke-width:0.26458332px;stroke-linecap:butt;stroke-linejoin:miter;stroke-opacity:1"
       d="m 44.577173,217.92205 c 6.857405,2.33933 15.987337,2.51617 21.199093,2.38969 0.811861,-0.0197 0.485485,6.50037 0.34555,12.54037 -5.069436,-0.94412 -3.822189,-6.20918 -5.839637,-7.2179 -6.790485,-3.39524 -11.452524,-2.51468 -15.705006,-7.71216 z"
       id="path5956"
       inkscape:connector-curvature="0"
       sodipodi:nodetypes="csccc" />
    <path
       style="fill:#1e222e;fill-opacity:1;stroke:none;stroke-width:0.26458332px;stroke-linecap:butt;stroke-linejoin:miter;stroke-opacity:1"
       d="m 87.87551,218.74477 c 9.848345,24.88309 -15.815928,2.25942 0,0 z"
       id="path5970"
       inkscape:connector-curvature="0" />
    <path
       style="fill:#1e222e;fill-opacity:1;stroke:none;stroke-width:0.26458332px;stroke-linecap:butt;stroke-linejoin:miter;stroke-opacity:1"
       d="m 66.877767,274.61848 c -9.223542,-52.52342 19.407222,-1.38623 0,0 z"
       id="path5974"
       inkscape:connector-curvature="0" />
    <path
       style="fill:#b0bcdf;fill-opacity:1;stroke:#000000;stroke-width:0.26458332px;stroke-linecap:butt;stroke-linejoin:miter;stroke-opacity:1"
       d="m 269.81938,316.67913 c 10.17038,6.5395 13.99483,16.16255 17.00894,27.21428 3.76531,13.80614 2.47412,32.35123 -9.82739,41.57739 -52.0283,39.02122 -90.56733,-51.23077 -39.6875,-65.76788"
       id="path6057"
       inkscape:connector-curvature="0" />
    <path
       style="fill:#ffce64;fill-opacity:1;stroke:#000000;stroke-width:0.26458332px;stroke-linecap:butt;stroke-linejoin:miter;stroke-opacity:1"
       d="m 212.77657,315.81789 c -4.7358,-12.67485 2.33002,-57.22981 5.29167,-64.63393 12.92249,-32.30622 50.46724,-34.66538 58.58631,7.9375 20.55822,107.87433 -54.54012,89.36194 -63.87798,56.69643 z"
       id="path5984"
       inkscape:connector-curvature="0"
       sodipodi:nodetypes="cssc" />
    <path
       style="fill:#b26d5d;fill-opacity:1;stroke:#000000;stroke-width:0.26458332px;stroke-linecap:butt;stroke-linejoin:miter;stroke-opacity:1"
       d="m 154.92249,321.68454 c -24.88725,0.27617 -27.60013,10.81728 -27.60013,28.2565 0,38.08148 96.83912,36.06215 76.35119,-4.91371 -8.0155,-16.031 -5.31718,-18.21082 -23.8125,-25.32441"
       id="path6049"
       inkscape:connector-curvature="0"
       sodipodi:nodetypes="cssc" />
    <path
       style="fill:#9a7242;fill-opacity:1;stroke:#000000;stroke-width:0.26458332px;stroke-linecap:butt;stroke-linejoin:miter;stroke-opacity:1"
       d="m 156.08015,301.45479 c 1.5542,20.95411 -5.89583,19.27136 -4.18147,20.9857 2.51444,2.51444 9.35694,6.57019 14.7648,6.74356 6.3273,0.20285 20.2006,-3.61187 17.74503,-6.76736 -2.3769,-3.0544 -7.927,-6.70794 -6.11162,-24.60468 -0.92924,-0.92924 -18.34743,-2.51296 -22.21674,3.64278 z"
       id="path6010"
       inkscape:connector-curvature="0"
       sodipodi:nodetypes="ccascc" />
    <path
       style="fill:#2b0705;fill-opacity:1;stroke:#000000;stroke-width:0.26458332px;stroke-linecap:butt;stroke-linejoin:miter;stroke-opacity:1"
       d="m 156.08015,301.45479 c -23.70738,-23.98843 -24.33048,-59.29559 -8.31548,-64.63393 3.28484,-1.09494 10.66282,-7.24128 15.11904,-7.18155 39.7437,0.5327 38.69682,48.57539 18.98191,69.00883 -3.54236,3.67147 -16.42968,14.9379 -25.78547,2.80665"
       id="path6000"
       inkscape:connector-curvature="0"
       sodipodi:nodetypes="ccssc" />
    <path
       style="fill:#8d3216;fill-opacity:1;stroke:#000000;stroke-width:0.26458332px;stroke-linecap:butt;stroke-linejoin:miter;stroke-opacity:1"
       d="m 170.80898,369.01047 c -0.6388,-12.92014 -0.99758,-36.71829 4.15816,-45.34883 11.00277,-18.41824 37.65762,-18.57452 50.09794,0.0488 6.60011,9.88048 12.24815,40.08205 -0.22507,51.19105"
       id="path6014"
       inkscape:connector-curvature="0"
       sodipodi:nodetypes="cssc" />
    <path
       style="fill:#ffe5c0;fill-opacity:1;stroke:#000000;stroke-width:0.26458332px;stroke-linecap:butt;stroke-linejoin:miter;stroke-opacity:1"
       d="m 92.955261,293.3588 c -18.827648,-7.94075 -11.709019,11.12367 -0.610515,11.91641"
       id="path6026"
       inkscape:connector-curvature="0"
       sodipodi:nodetypes="cc" />
    <path
       style="fill:#b280bd;fill-opacity:1;stroke:#000000;stroke-width:0.26458332px;stroke-linecap:butt;stroke-linejoin:miter;stroke-opacity:1"
       d="m 109.1795,311.76542 c 13.75225,25.08999 -17.885014,15.23921 -26.458332,23.8125 -3.362632,3.36264 -3.046911,25.39373 -4.535714,29.86013 -1.988632,5.96591 2.756116,11.44957 6.425595,15.11905 3.479377,3.47938 10.885165,6.36976 33.639881,3.40178 29.18721,-3.807 37.79761,-0.97149 37.79761,-26.83631 0,-4.91038 -1.83988,-20.19674 -6.04761,-22.3006 -4.60815,-2.30407 -16.76394,-3.15679 -20.78869,-7.18155 -3.91139,-3.91139 1.54613,-14.32886 -1.88988,-17.76487 -1.24236,-1.24238 -15.46712,1.69876 -18.14286,1.88987 z"
       id="path6045"
       inkscape:connector-curvature="0"
       sodipodi:nodetypes="cccssssccc" />
    <path
       style="fill:#ffeb94;fill-opacity:1;stroke:#000000;stroke-width:0.26458332px;stroke-linecap:butt;stroke-linejoin:miter;stroke-opacity:1"
       d="m 116.87425,328.35212 c 14.02264,-1.51587 27.03441,10.31704 29.55925,-2.74517 2.92243,-15.1192 -6.0257,-55.6008 -8.81609,-60.76584 -12.2893,-22.74757 -41.49518,-16.62212 -52.430256,5.98455 -5.356462,11.07371 -1.518076,56.57074 31.687096,57.52646"
       id="path6018"
       inkscape:connector-curvature="0"
       sodipodi:nodetypes="csssc" />
    <path
       style="fill:#2b0705;fill-opacity:1;stroke:#000000;stroke-width:0.26458332px;stroke-linecap:butt;stroke-linejoin:miter;stroke-opacity:1"
       d="M 11.963775,381.22428 C -14.209195,358.76364 6.9080355,296.53921 7.6691867,293.8662 16.332692,263.44171 51.18507,270.68426 65.356286,297.73483 c 7.474128,14.2669 4.233634,70.6592 -3.577541,82.79836"
       id="path6024"
       inkscape:connector-curvature="0"
       sodipodi:nodetypes="cssc" />
  </g>
  <g
     inkscape:groupmode="layer"
     id="layer6"
     inkscape:label="Layer 2"
     style="display:inline"
     transform="translate(17.418503)">
    <rect
       style="opacity:1;fill:none;fill-opacity:1;stroke:#000000;stroke-width:0.5;stroke-linecap:butt;stroke-linejoin:round;stroke-miterlimit:4;stroke-dasharray:none;stroke-dashoffset:0;stroke-opacity:1"
       id="rect6616"
       width="58.799294"
       height="113.85682"
       x="100.18009"
       y="-42.734993" />
    <ellipse
       style="opacity:1;fill:#d2ffc5;fill-opacity:1;stroke:#000000;stroke-width:0.5;stroke-linecap:butt;stroke-linejoin:round;stroke-miterlimit:4;stroke-dasharray:none;stroke-dashoffset:0;stroke-opacity:1"
       id="path6628"
       cx="-130.91606"
       cy="37.445862"
       rx="21.648829"
       ry="21.916103"
       transform="scale(-1,1)" />
    <ellipse
       style="display:inline;opacity:1;fill:#d2ffc5;fill-opacity:1;stroke:#000000;stroke-width:0.5;stroke-linecap:butt;stroke-linejoin:round;stroke-miterlimit:4;stroke-dasharray:none;stroke-dashoffset:0;stroke-opacity:1"
       id="path6628-1"
       cx="129.04518"
       cy="-22.957037"
       rx="21.648829"
       ry="21.916103" />
    <rect
       style="opacity:1;fill:none;fill-opacity:1;stroke:#000000;stroke-width:0.5;stroke-linecap:butt;stroke-linejoin:round;stroke-miterlimit:4;stroke-dasharray:none;stroke-dashoffset:0;stroke-opacity:1"
       id="rect6656"
       width="55.59206"
       height="158.22356"
       x="200.67343"
       y="-60.909321" />
    <ellipse
       style="display:inline;opacity:1;fill:#c5e3ff;fill-opacity:1;stroke:#000000;stroke-width:0.5;stroke-linecap:butt;stroke-linejoin:round;stroke-miterlimit:4;stroke-dasharray:none;stroke-dashoffset:0;stroke-opacity:1"
       id="path6628-4"
       cx="228.46947"
       cy="62.034676"
       rx="21.648829"
       ry="21.916103" />
    <ellipse
       style="display:inline;opacity:1;fill:#c5e3ff;fill-opacity:1;stroke:#000000;stroke-width:0.5;stroke-linecap:butt;stroke-linejoin:round;stroke-miterlimit:4;stroke-dasharray:none;stroke-dashoffset:0;stroke-opacity:1"
       id="path6628-41"
       cx="226.86584"
       cy="6.9771514"
       rx="21.648829"
       ry="21.916103" />
    <path
       style="fill:none;stroke:#000000;stroke-width:0.26458332px;stroke-linecap:butt;stroke-linejoin:miter;stroke-opacity:1"
       d="M 152.03037,37.980403 C 171.08413,24.588064 189.0694,11.346 205.48428,3.7699053"
       id="path6677"
       inkscape:connector-curvature="0"
       sodipodi:nodetypes="cc" />
    <path
       style="fill:none;stroke:#000000;stroke-width:0.26458332px;stroke-linecap:butt;stroke-linejoin:miter;stroke-opacity:1"
       d="M 152.03037,37.980403 207.0879,59.361965"
       id="path6679"
       inkscape:connector-curvature="0"
       sodipodi:nodetypes="cc" />
    <path
       style="fill:none;stroke:#000000;stroke-width:0.26458332px;stroke-linecap:butt;stroke-linejoin:miter;stroke-opacity:1"
       d="M 207.0879,59.361965 150.42676,-22.957047 205.48428,3.7699053"
       id="path6681"
       inkscape:connector-curvature="0"
       sodipodi:nodetypes="ccc" />
    <path
       style="fill:none;stroke:#000000;stroke-width:0.26458332px;stroke-linecap:butt;stroke-linejoin:miter;stroke-opacity:1"
       d="m 152.03037,37.980403 c 18.45006,-34.8240084 38.25382,-72.188238 56.66114,-106.37327"
       id="path6683"
       inkscape:connector-curvature="0" />
  </g>
</svg>
